<svg width="159" height="32" viewBox="0 0 159 32" fill="none" xmlns="http://www.w3.org/2000/svg">
<g clip-path="url(#clip0_1_16975)">
<path d="M41.7649 31.9668H0.263918C0.131959 31.9668 0 31.8348 0 31.7029C0 31.5709 0.131959 31.439 0.263918 31.439H41.7649C41.8969 31.439 42.0289 31.5709 42.0289 31.7029C42.0289 31.8348 41.9299 31.9668 41.7649 31.9668Z" fill="#3163E2"/>
<path d="M30.7793 14.0536C30.6473 13.8887 30.4824 13.8227 30.2845 13.8227H10.7875L10.2267 12.2062C10.1278 11.9423 9.89682 11.7773 9.63291 11.7773H4.38755C4.02466 11.7773 3.76074 12.0743 3.76074 12.4041C3.76074 12.767 4.05765 13.031 4.38755 13.031H9.17105L13.5257 25.0062L12.3711 29.4928C12.3381 29.6907 12.3711 29.8887 12.47 30.0536C12.602 30.2186 12.7669 30.2846 12.9649 30.2846H14.4494C14.7133 31.2743 15.637 32 16.7257 32C17.8144 32 18.7051 31.2743 19.002 30.2846H23.0927C23.3566 31.2743 24.2803 32 25.369 32C26.6556 32 27.7113 30.9444 27.7113 29.6578C27.7113 28.3712 26.6556 27.3155 25.369 27.3155C24.2803 27.3155 23.3896 28.0413 23.0927 29.031H19.002C18.7381 28.0413 17.8144 27.3155 16.7257 27.3155C15.637 27.3155 14.7463 28.0413 14.4494 29.031H13.7896L14.6803 25.633H28.0741C28.371 25.633 28.635 25.4351 28.7009 25.1382L30.9113 14.6145C30.9442 14.3835 30.9113 14.1856 30.7793 14.0536ZM25.369 28.5691C25.9628 28.5691 26.4576 29.0639 26.4576 29.6578C26.4576 30.2516 25.9628 30.7464 25.369 30.7464C24.7752 30.7464 24.2803 30.2516 24.2803 29.6578C24.2803 29.0639 24.7752 28.5691 25.369 28.5691ZM16.7257 28.5691C17.3195 28.5691 17.8143 29.0639 17.8143 29.6578C17.8143 30.2516 17.3195 30.7464 16.7257 30.7464C16.1649 30.7464 15.703 30.3176 15.637 29.7567C15.637 29.7237 15.637 29.6907 15.637 29.6907V29.6248C15.703 29.031 16.1649 28.5691 16.7257 28.5691ZM22.7628 24.3464L21.1793 20.3547H24.0494L25.6329 24.3464H22.7628ZM18.5071 24.3464L16.9236 20.3547H19.7937L21.3772 24.3464H18.5071ZM13.1628 20.3547H15.5381L17.1216 24.3464H14.6144L13.1628 20.3547ZM17.7154 15.0763L19.2989 19.0681H16.4288L14.8453 15.0763H17.7154ZM20.6515 19.0681L19.068 15.0763H21.9381L23.5216 19.0681H20.6515ZM23.3236 15.0763H26.1937L27.7772 19.0681H24.9071L23.3236 15.0763ZM28.8329 18.2763L27.5463 15.0763H29.4927L28.8329 18.2763ZM13.4597 15.0763L15.0432 19.0681H12.7339L11.2824 15.0763H13.4597ZM27.5463 24.3464H26.9855L25.402 20.3547H28.2721L28.3381 20.5526L27.5463 24.3464Z" fill="#3163E2"/>
<path d="M29.2954 6.86199C28.9655 6.96096 28.7675 7.29086 28.8335 7.65374C29.2294 9.20426 29.1964 10.8867 28.7345 12.4043C28.6356 12.7342 28.8335 13.097 29.1634 13.196C29.2294 13.196 29.2954 13.196 29.3614 13.196C29.6253 13.196 29.8892 13.0311 29.9552 12.7342C30.516 10.9527 30.549 9.0723 30.0541 7.29086C29.9882 6.96096 29.6583 6.76302 29.2954 6.86199Z" fill="#3163E2"/>
<path d="M22.7302 1.55064C24.5117 2.01249 26.0952 3.06816 27.2498 4.48672C27.4808 4.75064 27.8766 4.81662 28.1405 4.58569C28.4045 4.35476 28.4704 3.95888 28.2395 3.69497C26.9199 2.04548 25.0725 0.857854 23.0271 0.297029C19.6622 -0.560703 16.0333 0.428988 13.5921 2.90321C11.0849 5.44342 10.1282 9.30321 11.1838 12.7341C11.2828 12.9981 11.5137 13.196 11.7777 13.196C11.8436 13.196 11.9096 13.196 11.9756 13.163C12.3055 13.064 12.5034 12.7012 12.4045 12.3713C11.4808 9.40218 12.3055 6.03724 14.5158 3.82693C16.6271 1.64961 19.7942 0.791875 22.7302 1.55064Z" fill="#3163E2"/>
<path d="M30.6145 4.51979C30.4166 4.22288 30.0207 4.15691 29.7238 4.35484L19.9918 10.8868L18.3094 6.63113C18.1774 6.30124 17.8145 6.13629 17.4846 6.26825C17.1547 6.4002 16.9898 6.76309 17.1217 7.09299L19.1011 12.0744C19.1671 12.2394 19.332 12.4043 19.497 12.4373C19.563 12.4703 19.6289 12.4703 19.6949 12.4703C19.8269 12.4703 19.9588 12.4373 20.0578 12.3713L30.4496 5.37752C30.7465 5.21258 30.8124 4.8167 30.6145 4.51979Z" fill="#3163E2"/>
</g>
<path d="M60 14.92V17H51.328V5.8H59.792V7.88H53.904V10.312H59.104V12.328H53.904V14.92H60ZM61.2539 11.496H65.7819V13.496H61.2539V11.496ZM73.3443 17.192C72.2029 17.192 71.1683 16.9467 70.2403 16.456C69.3229 15.9547 68.5976 15.2667 68.0643 14.392C67.5416 13.5067 67.2803 12.5093 67.2803 11.4C67.2803 10.2907 67.5416 9.29867 68.0643 8.424C68.5976 7.53867 69.3229 6.85067 70.2403 6.36C71.1683 5.85867 72.2083 5.608 73.3603 5.608C74.3309 5.608 75.2056 5.77867 75.9843 6.12C76.7736 6.46133 77.4349 6.952 77.9683 7.592L76.3043 9.128C75.5469 8.25333 74.6083 7.816 73.4883 7.816C72.7949 7.816 72.1763 7.97067 71.6323 8.28C71.0883 8.57867 70.6616 9 70.3523 9.544C70.0536 10.088 69.9043 10.7067 69.9043 11.4C69.9043 12.0933 70.0536 12.712 70.3523 13.256C70.6616 13.8 71.0883 14.2267 71.6323 14.536C72.1763 14.8347 72.7949 14.984 73.4883 14.984C74.6083 14.984 75.5469 14.5413 76.3043 13.656L77.9683 15.192C77.4349 15.8427 76.7736 16.3387 75.9843 16.68C75.1949 17.0213 74.3149 17.192 73.3443 17.192ZM83.3418 17.128C82.4351 17.128 81.6191 16.9413 80.8938 16.568C80.1791 16.184 79.6191 15.656 79.2138 14.984C78.8084 14.312 78.6058 13.5493 78.6058 12.696C78.6058 11.8427 78.8084 11.08 79.2138 10.408C79.6191 9.736 80.1791 9.21333 80.8938 8.84C81.6191 8.456 82.4351 8.264 83.3418 8.264C84.2484 8.264 85.0591 8.456 85.7738 8.84C86.4884 9.21333 87.0484 9.736 87.4538 10.408C87.8591 11.08 88.0618 11.8427 88.0618 12.696C88.0618 13.5493 87.8591 14.312 87.4538 14.984C87.0484 15.656 86.4884 16.184 85.7738 16.568C85.0591 16.9413 84.2484 17.128 83.3418 17.128ZM83.3418 15.08C83.9818 15.08 84.5044 14.8667 84.9098 14.44C85.3258 14.0027 85.5338 13.4213 85.5338 12.696C85.5338 11.9707 85.3258 11.3947 84.9098 10.968C84.5044 10.5307 83.9818 10.312 83.3418 10.312C82.7018 10.312 82.1738 10.5307 81.7578 10.968C81.3418 11.3947 81.1338 11.9707 81.1338 12.696C81.1338 13.4213 81.3418 14.0027 81.7578 14.44C82.1738 14.8667 82.7018 15.08 83.3418 15.08ZM100.754 8.264C101.831 8.264 102.685 8.584 103.314 9.224C103.954 9.85333 104.274 10.8027 104.274 12.072V17H101.778V12.456C101.778 11.7733 101.634 11.2667 101.346 10.936C101.069 10.5947 100.669 10.424 100.146 10.424C99.5595 10.424 99.0955 10.616 98.7541 11C98.4128 11.3733 98.2421 11.9333 98.2421 12.68V17H95.7461V12.456C95.7461 11.1013 95.2021 10.424 94.1141 10.424C93.5381 10.424 93.0795 10.616 92.7381 11C92.3968 11.3733 92.2261 11.9333 92.2261 12.68V17H89.7301V8.392H92.1141V9.384C92.4341 9.02133 92.8235 8.744 93.2821 8.552C93.7515 8.36 94.2635 8.264 94.8181 8.264C95.4261 8.264 95.9755 8.38667 96.4661 8.632C96.9568 8.86667 97.3515 9.21333 97.6501 9.672C98.0021 9.224 98.4448 8.87733 98.9781 8.632C99.5221 8.38667 100.114 8.264 100.754 8.264ZM117.535 8.264C118.613 8.264 119.466 8.584 120.095 9.224C120.735 9.85333 121.055 10.8027 121.055 12.072V17H118.559V12.456C118.559 11.7733 118.415 11.2667 118.127 10.936C117.85 10.5947 117.45 10.424 116.927 10.424C116.341 10.424 115.877 10.616 115.535 11C115.194 11.3733 115.023 11.9333 115.023 12.68V17H112.527V12.456C112.527 11.1013 111.983 10.424 110.895 10.424C110.319 10.424 109.861 10.616 109.519 11C109.178 11.3733 109.007 11.9333 109.007 12.68V17H106.511V8.392H108.895V9.384C109.215 9.02133 109.605 8.744 110.063 8.552C110.533 8.36 111.045 8.264 111.599 8.264C112.207 8.264 112.757 8.38667 113.247 8.632C113.738 8.86667 114.133 9.21333 114.431 9.672C114.783 9.224 115.226 8.87733 115.759 8.632C116.303 8.38667 116.895 8.264 117.535 8.264ZM131.818 12.728C131.818 12.76 131.802 12.984 131.77 13.4H125.258C125.376 13.9333 125.653 14.3547 126.09 14.664C126.528 14.9733 127.072 15.128 127.722 15.128C128.17 15.128 128.565 15.064 128.906 14.936C129.258 14.7973 129.584 14.584 129.882 14.296L131.21 15.736C130.4 16.664 129.216 17.128 127.658 17.128C126.688 17.128 125.829 16.9413 125.082 16.568C124.336 16.184 123.76 15.656 123.354 14.984C122.949 14.312 122.746 13.5493 122.746 12.696C122.746 11.8533 122.944 11.096 123.338 10.424C123.744 9.74133 124.293 9.21333 124.986 8.84C125.69 8.456 126.474 8.264 127.338 8.264C128.181 8.264 128.944 8.44533 129.626 8.808C130.309 9.17067 130.842 9.69333 131.226 10.376C131.621 11.048 131.818 11.832 131.818 12.728ZM127.354 10.152C126.789 10.152 126.314 10.312 125.93 10.632C125.546 10.952 125.312 11.3893 125.226 11.944H129.466C129.381 11.4 129.146 10.968 128.762 10.648C128.378 10.3173 127.909 10.152 127.354 10.152ZM135.864 9.528C136.163 9.112 136.563 8.79733 137.064 8.584C137.576 8.37067 138.163 8.264 138.824 8.264V10.568C138.547 10.5467 138.36 10.536 138.264 10.536C137.549 10.536 136.989 10.7387 136.584 11.144C136.179 11.5387 135.976 12.136 135.976 12.936V17H133.48V8.392H135.864V9.528ZM144.39 17.128C143.473 17.128 142.646 16.9413 141.91 16.568C141.185 16.184 140.614 15.656 140.198 14.984C139.793 14.312 139.59 13.5493 139.59 12.696C139.59 11.8427 139.793 11.08 140.198 10.408C140.614 9.736 141.185 9.21333 141.91 8.84C142.646 8.456 143.473 8.264 144.39 8.264C145.297 8.264 146.086 8.456 146.758 8.84C147.441 9.21333 147.937 9.752 148.246 10.456L146.31 11.496C145.862 10.7067 145.217 10.312 144.374 10.312C143.723 10.312 143.185 10.5253 142.758 10.952C142.331 11.3787 142.118 11.96 142.118 12.696C142.118 13.432 142.331 14.0133 142.758 14.44C143.185 14.8667 143.723 15.08 144.374 15.08C145.227 15.08 145.873 14.6853 146.31 13.896L148.246 14.952C147.937 15.6347 147.441 16.168 146.758 16.552C146.086 16.936 145.297 17.128 144.39 17.128ZM158.006 12.728C158.006 12.76 157.99 12.984 157.958 13.4H151.446C151.563 13.9333 151.841 14.3547 152.278 14.664C152.715 14.9733 153.259 15.128 153.91 15.128C154.358 15.128 154.753 15.064 155.094 14.936C155.446 14.7973 155.771 14.584 156.07 14.296L157.398 15.736C156.587 16.664 155.403 17.128 153.846 17.128C152.875 17.128 152.017 16.9413 151.27 16.568C150.523 16.184 149.947 15.656 149.542 14.984C149.137 14.312 148.934 13.5493 148.934 12.696C148.934 11.8533 149.131 11.096 149.526 10.424C149.931 9.74133 150.481 9.21333 151.174 8.84C151.878 8.456 152.662 8.264 153.526 8.264C154.369 8.264 155.131 8.44533 155.814 8.808C156.497 9.17067 157.03 9.69333 157.414 10.376C157.809 11.048 158.006 11.832 158.006 12.728ZM153.542 10.152C152.977 10.152 152.502 10.312 152.118 10.632C151.734 10.952 151.499 11.3893 151.414 11.944H155.654C155.569 11.4 155.334 10.968 154.95 10.648C154.566 10.3173 154.097 10.152 153.542 10.152Z" fill="black"/>
<path d="M56.608 26.096C56.9333 26.1867 57.1893 26.352 57.376 26.592C57.5627 26.8267 57.656 27.1253 57.656 27.488C57.656 27.9733 57.472 28.3467 57.104 28.608C56.7413 28.8693 56.2107 29 55.512 29H52.84V23.4H55.352C55.992 23.4 56.4853 23.528 56.832 23.784C57.184 24.04 57.36 24.3947 57.36 24.848C57.36 25.1413 57.2907 25.3947 57.152 25.608C57.0187 25.8213 56.8373 25.984 56.608 26.096ZM53.64 24.048V25.84H55.28C55.6907 25.84 56.0053 25.7653 56.224 25.616C56.448 25.4613 56.56 25.2373 56.56 24.944C56.56 24.6507 56.448 24.4293 56.224 24.28C56.0053 24.1253 55.6907 24.048 55.28 24.048H53.64ZM55.48 28.352C55.9333 28.352 56.2747 28.2773 56.504 28.128C56.7333 27.9787 56.848 27.744 56.848 27.424C56.848 26.8 56.392 26.488 55.48 26.488H53.64V28.352H55.48ZM62.5347 24.76L60.4787 29.424C60.2974 29.856 60.084 30.16 59.8387 30.336C59.5987 30.512 59.308 30.6 58.9667 30.6C58.7587 30.6 58.556 30.5653 58.3587 30.496C58.1667 30.432 58.0067 30.336 57.8787 30.208L58.2067 29.632C58.4254 29.84 58.6787 29.944 58.9667 29.944C59.1534 29.944 59.308 29.8933 59.4307 29.792C59.5587 29.696 59.6734 29.528 59.7747 29.288L59.9107 28.992L58.0387 24.76H58.8387L60.3187 28.152L61.7827 24.76H62.5347ZM67.6479 24.72C68.0585 24.72 68.4265 24.8107 68.7519 24.992C69.0772 25.1733 69.3305 25.4267 69.5119 25.752C69.6985 26.0773 69.7919 26.4533 69.7919 26.88C69.7919 27.3067 69.6985 27.6853 69.5119 28.016C69.3305 28.3413 69.0772 28.5947 68.7519 28.776C68.4265 28.9573 68.0585 29.048 67.6479 29.048C67.3332 29.048 67.0452 28.9867 66.7839 28.864C66.5225 28.7413 66.3065 28.5627 66.1359 28.328V29H65.3999V23.064H66.1679V25.4C66.3385 25.176 66.5519 25.008 66.8079 24.896C67.0639 24.7787 67.3439 24.72 67.6479 24.72ZM67.5839 28.376C67.8559 28.376 68.0985 28.3147 68.3119 28.192C68.5305 28.064 68.7012 27.888 68.8239 27.664C68.9519 27.4347 69.0159 27.1733 69.0159 26.88C69.0159 26.5867 68.9519 26.328 68.8239 26.104C68.7012 25.8747 68.5305 25.6987 68.3119 25.576C68.0985 25.4533 67.8559 25.392 67.5839 25.392C67.3172 25.392 67.0745 25.4533 66.8559 25.576C66.6372 25.6987 66.4665 25.8747 66.3439 26.104C66.2212 26.328 66.1599 26.5867 66.1599 26.88C66.1599 27.1733 66.2212 27.4347 66.3439 27.664C66.4665 27.888 66.6372 28.064 66.8559 28.192C67.0745 28.3147 67.3172 28.376 67.5839 28.376ZM72.669 29.048C72.2477 29.048 71.869 28.9547 71.533 28.768C71.197 28.5813 70.933 28.3253 70.741 28C70.5543 27.6693 70.461 27.296 70.461 26.88C70.461 26.464 70.5543 26.0933 70.741 25.768C70.933 25.4373 71.197 25.1813 71.533 25C71.869 24.8133 72.2477 24.72 72.669 24.72C73.0903 24.72 73.4663 24.8133 73.797 25C74.133 25.1813 74.3943 25.4373 74.581 25.768C74.773 26.0933 74.869 26.464 74.869 26.88C74.869 27.296 74.773 27.6693 74.581 28C74.3943 28.3253 74.133 28.5813 73.797 28.768C73.4663 28.9547 73.0903 29.048 72.669 29.048ZM72.669 28.376C72.941 28.376 73.1837 28.3147 73.397 28.192C73.6157 28.064 73.7863 27.888 73.909 27.664C74.0317 27.4347 74.093 27.1733 74.093 26.88C74.093 26.5867 74.0317 26.328 73.909 26.104C73.7863 25.8747 73.6157 25.6987 73.397 25.576C73.1837 25.4533 72.941 25.392 72.669 25.392C72.397 25.392 72.1517 25.4533 71.933 25.576C71.7197 25.6987 71.549 25.8747 71.421 26.104C71.2983 26.328 71.237 26.5867 71.237 26.88C71.237 27.1733 71.2983 27.4347 71.421 27.664C71.549 27.888 71.7197 28.064 71.933 28.192C72.1517 28.3147 72.397 28.376 72.669 28.376ZM77.7471 29.048C77.3258 29.048 76.9471 28.9547 76.6111 28.768C76.2751 28.5813 76.0111 28.3253 75.8191 28C75.6325 27.6693 75.5391 27.296 75.5391 26.88C75.5391 26.464 75.6325 26.0933 75.8191 25.768C76.0111 25.4373 76.2751 25.1813 76.6111 25C76.9471 24.8133 77.3258 24.72 77.7471 24.72C78.1685 24.72 78.5445 24.8133 78.8751 25C79.2111 25.1813 79.4725 25.4373 79.6591 25.768C79.8511 26.0933 79.9471 26.464 79.9471 26.88C79.9471 27.296 79.8511 27.6693 79.6591 28C79.4725 28.3253 79.2111 28.5813 78.8751 28.768C78.5445 28.9547 78.1685 29.048 77.7471 29.048ZM77.7471 28.376C78.0191 28.376 78.2618 28.3147 78.4751 28.192C78.6938 28.064 78.8645 27.888 78.9871 27.664C79.1098 27.4347 79.1711 27.1733 79.1711 26.88C79.1711 26.5867 79.1098 26.328 78.9871 26.104C78.8645 25.8747 78.6938 25.6987 78.4751 25.576C78.2618 25.4533 78.0191 25.392 77.7471 25.392C77.4751 25.392 77.2298 25.4533 77.0111 25.576C76.7978 25.6987 76.6271 25.8747 76.4991 26.104C76.3765 26.328 76.3151 26.5867 76.3151 26.88C76.3151 27.1733 76.3765 27.4347 76.4991 27.664C76.6271 27.888 76.7978 28.064 77.0111 28.192C77.2298 28.3147 77.4751 28.376 77.7471 28.376ZM83.3933 28.752C83.2813 28.848 83.1426 28.9227 82.9773 28.976C82.8119 29.024 82.6413 29.048 82.4653 29.048C82.0386 29.048 81.7079 28.9333 81.4733 28.704C81.2386 28.4747 81.1213 28.1467 81.1213 27.72V25.392H80.4013V24.76H81.1213V23.832H81.8893V24.76H83.1053V25.392H81.8893V27.688C81.8893 27.9173 81.9453 28.0933 82.0573 28.216C82.1746 28.3387 82.3399 28.4 82.5533 28.4C82.7879 28.4 82.9879 28.3333 83.1533 28.2L83.3933 28.752ZM86.0291 29.048C85.5971 29.048 85.2105 28.9547 84.8691 28.768C84.5331 28.5813 84.2691 28.3253 84.0771 28C83.8851 27.6693 83.7891 27.296 83.7891 26.88C83.7891 26.464 83.8851 26.0933 84.0771 25.768C84.2691 25.4373 84.5331 25.1813 84.8691 25C85.2105 24.8133 85.5971 24.72 86.0291 24.72C86.4131 24.72 86.7545 24.7973 87.0531 24.952C87.3571 25.1067 87.5918 25.3307 87.7571 25.624L87.1731 26C87.0398 25.7973 86.8745 25.6453 86.6771 25.544C86.4798 25.4427 86.2611 25.392 86.0211 25.392C85.7438 25.392 85.4931 25.4533 85.2691 25.576C85.0505 25.6987 84.8771 25.8747 84.7491 26.104C84.6265 26.328 84.5651 26.5867 84.5651 26.88C84.5651 27.1787 84.6265 27.4427 84.7491 27.672C84.8771 27.896 85.0505 28.0693 85.2691 28.192C85.4931 28.3147 85.7438 28.376 86.0211 28.376C86.2611 28.376 86.4798 28.3253 86.6771 28.224C86.8745 28.1227 87.0398 27.9707 87.1731 27.768L87.7571 28.136C87.5918 28.4293 87.3571 28.656 87.0531 28.816C86.7545 28.9707 86.4131 29.048 86.0291 29.048ZM90.2954 24.72C90.8821 24.72 91.3301 24.864 91.6394 25.152C91.9541 25.44 92.1114 25.8693 92.1114 26.44V29H91.3834V28.44C91.2554 28.6373 91.0714 28.7893 90.8314 28.896C90.5968 28.9973 90.3168 29.048 89.9914 29.048C89.5168 29.048 89.1354 28.9333 88.8474 28.704C88.5648 28.4747 88.4234 28.1733 88.4234 27.8C88.4234 27.4267 88.5594 27.128 88.8314 26.904C89.1034 26.6747 89.5354 26.56 90.1274 26.56H91.3434V26.408C91.3434 26.0773 91.2474 25.824 91.0554 25.648C90.8634 25.472 90.5808 25.384 90.2074 25.384C89.9568 25.384 89.7114 25.4267 89.4714 25.512C89.2314 25.592 89.0288 25.7013 88.8634 25.84L88.5434 25.264C88.7621 25.088 89.0234 24.9547 89.3274 24.864C89.6314 24.768 89.9541 24.72 90.2954 24.72ZM90.1194 28.456C90.4128 28.456 90.6661 28.392 90.8794 28.264C91.0928 28.1307 91.2474 27.944 91.3434 27.704V27.112H90.1594C89.5088 27.112 89.1834 27.3307 89.1834 27.768C89.1834 27.9813 89.2661 28.1493 89.4314 28.272C89.5968 28.3947 89.8261 28.456 90.1194 28.456ZM98.8367 24.72C99.37 24.72 99.7914 24.8747 100.101 25.184C100.415 25.4933 100.573 25.952 100.573 26.56V29H99.8047V26.648C99.8047 26.2373 99.7087 25.928 99.5167 25.72C99.33 25.512 99.0607 25.408 98.7087 25.408C98.3194 25.408 98.01 25.5307 97.7807 25.776C97.5514 26.016 97.4367 26.3627 97.4367 26.816V29H96.6687V26.648C96.6687 26.2373 96.5727 25.928 96.3807 25.72C96.194 25.512 95.9247 25.408 95.5727 25.408C95.1834 25.408 94.874 25.5307 94.6447 25.776C94.4154 26.016 94.3007 26.3627 94.3007 26.816V29H93.5327V24.76H94.2687V25.392C94.4234 25.1733 94.626 25.008 94.8767 24.896C95.1274 24.7787 95.4127 24.72 95.7327 24.72C96.0634 24.72 96.3567 24.7867 96.6127 24.92C96.8687 25.0533 97.066 25.248 97.2047 25.504C97.3647 25.2587 97.586 25.0667 97.8687 24.928C98.1567 24.7893 98.4794 24.72 98.8367 24.72ZM104.234 24.72C104.644 24.72 105.012 24.8107 105.338 24.992C105.663 25.1733 105.916 25.4267 106.098 25.752C106.284 26.0773 106.378 26.4533 106.378 26.88C106.378 27.3067 106.284 27.6853 106.098 28.016C105.916 28.3413 105.663 28.5947 105.338 28.776C105.012 28.9573 104.644 29.048 104.234 29.048C103.93 29.048 103.65 28.9893 103.394 28.872C103.143 28.7547 102.93 28.584 102.754 28.36V30.552H101.986V24.76H102.722V25.432C102.892 25.1973 103.108 25.0213 103.37 24.904C103.631 24.7813 103.919 24.72 104.234 24.72ZM104.17 28.376C104.442 28.376 104.684 28.3147 104.898 28.192C105.116 28.064 105.287 27.888 105.41 27.664C105.538 27.4347 105.602 27.1733 105.602 26.88C105.602 26.5867 105.538 26.328 105.41 26.104C105.287 25.8747 105.116 25.6987 104.898 25.576C104.684 25.4533 104.442 25.392 104.17 25.392C103.903 25.392 103.66 25.456 103.442 25.584C103.228 25.7067 103.058 25.88 102.93 26.104C102.807 26.328 102.746 26.5867 102.746 26.88C102.746 27.1733 102.807 27.4347 102.93 27.664C103.052 27.888 103.223 28.064 103.442 28.192C103.66 28.3147 103.903 28.376 104.17 28.376ZM111.387 25.752C111.937 25.8053 112.355 25.976 112.643 26.264C112.931 26.5467 113.075 26.9093 113.075 27.352C113.075 27.672 112.995 27.9627 112.835 28.224C112.675 28.48 112.435 28.6853 112.115 28.84C111.801 28.9893 111.414 29.064 110.955 29.064C110.555 29.064 110.171 29.0053 109.803 28.888C109.435 28.7653 109.134 28.5973 108.899 28.384L109.267 27.752C109.459 27.9333 109.705 28.08 110.003 28.192C110.302 28.2987 110.619 28.352 110.955 28.352C111.371 28.352 111.694 28.264 111.923 28.088C112.158 27.912 112.275 27.6693 112.275 27.36C112.275 27.0507 112.161 26.8107 111.931 26.64C111.702 26.4693 111.355 26.384 110.891 26.384H110.443V25.824L111.851 24.096H109.155V23.4H112.851V23.944L111.387 25.752ZM114.35 29.048C114.2 29.048 114.072 28.9973 113.965 28.896C113.859 28.7893 113.806 28.656 113.806 28.496C113.806 28.3413 113.859 28.2133 113.965 28.112C114.072 28.0053 114.2 27.952 114.35 27.952C114.499 27.952 114.624 28.0027 114.726 28.104C114.827 28.2053 114.878 28.336 114.878 28.496C114.878 28.656 114.824 28.7893 114.718 28.896C114.616 28.9973 114.494 29.048 114.35 29.048ZM117.828 29.064C117.386 29.064 116.991 28.952 116.644 28.728C116.303 28.4987 116.034 28.168 115.836 27.736C115.639 27.304 115.54 26.792 115.54 26.2C115.54 25.608 115.639 25.096 115.836 24.664C116.034 24.232 116.303 23.904 116.644 23.68C116.991 23.4507 117.386 23.336 117.828 23.336C118.266 23.336 118.655 23.4507 118.996 23.68C119.343 23.904 119.615 24.232 119.812 24.664C120.01 25.096 120.108 25.608 120.108 26.2C120.108 26.792 120.01 27.304 119.812 27.736C119.615 28.168 119.343 28.4987 118.996 28.728C118.655 28.952 118.266 29.064 117.828 29.064ZM117.828 28.352C118.276 28.352 118.634 28.168 118.9 27.8C119.172 27.432 119.308 26.8987 119.308 26.2C119.308 25.5013 119.172 24.968 118.9 24.6C118.634 24.232 118.276 24.048 117.828 24.048C117.375 24.048 117.012 24.232 116.74 24.6C116.474 24.968 116.34 25.5013 116.34 26.2C116.34 26.8987 116.474 27.432 116.74 27.8C117.012 28.168 117.375 28.352 117.828 28.352Z" fill="black"/>
<defs>
<clipPath id="clip0_1_16975">
<rect width="42.0289" height="32" fill="white"/>
</clipPath>
</defs>
</svg>
