<svg width="218" height="200" viewBox="0 0 218 200" fill="none" xmlns="http://www.w3.org/2000/svg">
<path d="M20 155.84V160H2.656V137.6H19.584V141.76H7.808V146.624H18.208V150.656H7.808V155.84H20ZM22.5078 148.992H31.5638V152.992H22.5078V148.992ZM46.6885 160.384C44.4058 160.384 42.3365 159.893 40.4805 158.912C38.6458 157.909 37.1952 156.533 36.1285 154.784C35.0832 153.013 34.5605 151.019 34.5605 148.8C34.5605 146.581 35.0832 144.597 36.1285 142.848C37.1952 141.077 38.6458 139.701 40.4805 138.72C42.3365 137.717 44.4165 137.216 46.7205 137.216C48.6618 137.216 50.4112 137.557 51.9685 138.24C53.5472 138.923 54.8698 139.904 55.9365 141.184L52.6085 144.256C51.0938 142.507 49.2165 141.632 46.9765 141.632C45.5898 141.632 44.3525 141.941 43.2645 142.56C42.1765 143.157 41.3232 144 40.7045 145.088C40.1072 146.176 39.8085 147.413 39.8085 148.8C39.8085 150.187 40.1072 151.424 40.7045 152.512C41.3232 153.6 42.1765 154.453 43.2645 155.072C44.3525 155.669 45.5898 155.968 46.9765 155.968C49.2165 155.968 51.0938 155.083 52.6085 153.312L55.9365 156.384C54.8698 157.685 53.5472 158.677 51.9685 159.36C50.3898 160.043 48.6298 160.384 46.6885 160.384ZM66.6835 160.256C64.8702 160.256 63.2382 159.883 61.7875 159.136C60.3582 158.368 59.2382 157.312 58.4275 155.968C57.6168 154.624 57.2115 153.099 57.2115 151.392C57.2115 149.685 57.6168 148.16 58.4275 146.816C59.2382 145.472 60.3582 144.427 61.7875 143.68C63.2382 142.912 64.8702 142.528 66.6835 142.528C68.4968 142.528 70.1182 142.912 71.5475 143.68C72.9768 144.427 74.0968 145.472 74.9075 146.816C75.7182 148.16 76.1235 149.685 76.1235 151.392C76.1235 153.099 75.7182 154.624 74.9075 155.968C74.0968 157.312 72.9768 158.368 71.5475 159.136C70.1182 159.883 68.4968 160.256 66.6835 160.256ZM66.6835 156.16C67.9635 156.16 69.0088 155.733 69.8195 154.88C70.6515 154.005 71.0675 152.843 71.0675 151.392C71.0675 149.941 70.6515 148.789 69.8195 147.936C69.0088 147.061 67.9635 146.624 66.6835 146.624C65.4035 146.624 64.3475 147.061 63.5155 147.936C62.6835 148.789 62.2675 149.941 62.2675 151.392C62.2675 152.843 62.6835 154.005 63.5155 154.88C64.3475 155.733 65.4035 156.16 66.6835 156.16ZM101.508 142.528C103.663 142.528 105.37 143.168 106.628 144.448C107.908 145.707 108.548 147.605 108.548 150.144V160H103.556V150.912C103.556 149.547 103.268 148.533 102.692 147.872C102.138 147.189 101.338 146.848 100.292 146.848C99.1189 146.848 98.1909 147.232 97.5083 148C96.8256 148.747 96.4843 149.867 96.4843 151.36V160H91.4923V150.912C91.4923 148.203 90.4043 146.848 88.2283 146.848C87.0763 146.848 86.1589 147.232 85.4763 148C84.7936 148.747 84.4523 149.867 84.4523 151.36V160H79.4603V142.784H84.2283V144.768C84.8683 144.043 85.6469 143.488 86.5642 143.104C87.5029 142.72 88.5269 142.528 89.6363 142.528C90.8523 142.528 91.9509 142.773 92.9323 143.264C93.9136 143.733 94.7029 144.427 95.3003 145.344C96.0043 144.448 96.8896 143.755 97.9563 143.264C99.0443 142.773 100.228 142.528 101.508 142.528ZM135.071 142.528C137.225 142.528 138.932 143.168 140.191 144.448C141.471 145.707 142.111 147.605 142.111 150.144V160H137.119V150.912C137.119 149.547 136.831 148.533 136.255 147.872C135.7 147.189 134.9 146.848 133.855 146.848C132.681 146.848 131.753 147.232 131.071 148C130.388 148.747 130.047 149.867 130.047 151.36V160H125.055V150.912C125.055 148.203 123.967 146.848 121.791 146.848C120.639 146.848 119.721 147.232 119.039 148C118.356 148.747 118.015 149.867 118.015 151.36V160H113.023V142.784H117.791V144.768C118.431 144.043 119.209 143.488 120.127 143.104C121.065 142.72 122.089 142.528 123.199 142.528C124.415 142.528 125.513 142.773 126.495 143.264C127.476 143.733 128.265 144.427 128.863 145.344C129.567 144.448 130.452 143.755 131.519 143.264C132.607 142.773 133.791 142.528 135.071 142.528ZM163.637 151.456C163.637 151.52 163.605 151.968 163.541 152.8H150.517C150.751 153.867 151.306 154.709 152.181 155.328C153.055 155.947 154.143 156.256 155.445 156.256C156.341 156.256 157.13 156.128 157.813 155.872C158.517 155.595 159.167 155.168 159.765 154.592L162.421 157.472C160.799 159.328 158.431 160.256 155.317 160.256C153.375 160.256 151.658 159.883 150.165 159.136C148.671 158.368 147.519 157.312 146.709 155.968C145.898 154.624 145.493 153.099 145.493 151.392C145.493 149.707 145.887 148.192 146.677 146.848C147.487 145.483 148.586 144.427 149.973 143.68C151.381 142.912 152.949 142.528 154.677 142.528C156.362 142.528 157.887 142.891 159.253 143.616C160.618 144.341 161.685 145.387 162.453 146.752C163.242 148.096 163.637 149.664 163.637 151.456ZM154.709 146.304C153.578 146.304 152.629 146.624 151.861 147.264C151.093 147.904 150.623 148.779 150.453 149.888H158.933C158.762 148.8 158.293 147.936 157.525 147.296C156.757 146.635 155.818 146.304 154.709 146.304ZM171.728 145.056C172.326 144.224 173.126 143.595 174.128 143.168C175.152 142.741 176.326 142.528 177.648 142.528V147.136C177.094 147.093 176.72 147.072 176.528 147.072C175.099 147.072 173.979 147.477 173.168 148.288C172.358 149.077 171.952 150.272 171.952 151.872V160H166.96V142.784H171.728V145.056ZM188.78 160.256C186.946 160.256 185.292 159.883 183.82 159.136C182.37 158.368 181.228 157.312 180.396 155.968C179.586 154.624 179.18 153.099 179.18 151.392C179.18 149.685 179.586 148.16 180.396 146.816C181.228 145.472 182.37 144.427 183.82 143.68C185.292 142.912 186.946 142.528 188.78 142.528C190.594 142.528 192.172 142.912 193.516 143.68C194.882 144.427 195.874 145.504 196.492 146.912L192.62 148.992C191.724 147.413 190.434 146.624 188.748 146.624C187.447 146.624 186.37 147.051 185.516 147.904C184.663 148.757 184.236 149.92 184.236 151.392C184.236 152.864 184.663 154.027 185.516 154.88C186.37 155.733 187.447 156.16 188.748 156.16C190.455 156.16 191.746 155.371 192.62 153.792L196.492 155.904C195.874 157.269 194.882 158.336 193.516 159.104C192.172 159.872 190.594 160.256 188.78 160.256ZM216.012 151.456C216.012 151.52 215.98 151.968 215.916 152.8H202.892C203.126 153.867 203.681 154.709 204.556 155.328C205.43 155.947 206.518 156.256 207.82 156.256C208.716 156.256 209.505 156.128 210.188 155.872C210.892 155.595 211.542 155.168 212.14 154.592L214.796 157.472C213.174 159.328 210.806 160.256 207.692 160.256C205.75 160.256 204.033 159.883 202.54 159.136C201.046 158.368 199.894 157.312 199.084 155.968C198.273 154.624 197.868 153.099 197.868 151.392C197.868 149.707 198.262 148.192 199.052 146.848C199.862 145.483 200.961 144.427 202.348 143.68C203.756 142.912 205.324 142.528 207.052 142.528C208.737 142.528 210.262 142.891 211.628 143.616C212.993 144.341 214.06 145.387 214.828 146.752C215.617 148.096 216.012 149.664 216.012 151.456ZM207.084 146.304C205.953 146.304 205.004 146.624 204.236 147.264C203.468 147.904 202.998 148.779 202.828 149.888H211.308C211.137 148.8 210.668 147.936 209.9 147.296C209.132 146.635 208.193 146.304 207.084 146.304Z" fill="black"/>
<path d="M34.52 187.74C35.3333 187.967 35.9733 188.38 36.44 188.98C36.9067 189.567 37.14 190.313 37.14 191.22C37.14 192.433 36.68 193.367 35.76 194.02C34.8533 194.673 33.5267 195 31.78 195H25.1V181H31.38C32.98 181 34.2133 181.32 35.08 181.96C35.96 182.6 36.4 183.487 36.4 184.62C36.4 185.353 36.2267 185.987 35.88 186.52C35.5467 187.053 35.0933 187.46 34.52 187.74ZM27.1 182.62V187.1H31.2C32.2267 187.1 33.0133 186.913 33.56 186.54C34.12 186.153 34.4 185.593 34.4 184.86C34.4 184.127 34.12 183.573 33.56 183.2C33.0133 182.813 32.2267 182.62 31.2 182.62H27.1ZM31.7 193.38C32.8333 193.38 33.6867 193.193 34.26 192.82C34.8333 192.447 35.12 191.86 35.12 191.06C35.12 189.5 33.98 188.72 31.7 188.72H27.1V193.38H31.7ZM49.3367 184.4L44.1967 196.06C43.7434 197.14 43.2101 197.9 42.5967 198.34C41.9967 198.78 41.2701 199 40.4167 199C39.8967 199 39.3901 198.913 38.8967 198.74C38.4167 198.58 38.0167 198.34 37.6967 198.02L38.5167 196.58C39.0634 197.1 39.6967 197.36 40.4167 197.36C40.8834 197.36 41.2701 197.233 41.5767 196.98C41.8967 196.74 42.1834 196.32 42.4367 195.72L42.7767 194.98L38.0967 184.4H40.0967L43.7967 192.88L47.4567 184.4H49.3367ZM62.1197 184.3C63.1464 184.3 64.0664 184.527 64.8797 184.98C65.693 185.433 66.3264 186.067 66.7797 186.88C67.2464 187.693 67.4797 188.633 67.4797 189.7C67.4797 190.767 67.2464 191.713 66.7797 192.54C66.3264 193.353 65.693 193.987 64.8797 194.44C64.0664 194.893 63.1464 195.12 62.1197 195.12C61.333 195.12 60.613 194.967 59.9597 194.66C59.3064 194.353 58.7664 193.907 58.3397 193.32V195H56.4997V180.16H58.4197V186C58.8464 185.44 59.3797 185.02 60.0197 184.74C60.6597 184.447 61.3597 184.3 62.1197 184.3ZM61.9597 193.44C62.6397 193.44 63.2464 193.287 63.7797 192.98C64.3264 192.66 64.753 192.22 65.0597 191.66C65.3797 191.087 65.5397 190.433 65.5397 189.7C65.5397 188.967 65.3797 188.32 65.0597 187.76C64.753 187.187 64.3264 186.747 63.7797 186.44C63.2464 186.133 62.6397 185.98 61.9597 185.98C61.293 185.98 60.6864 186.133 60.1397 186.44C59.593 186.747 59.1664 187.187 58.8597 187.76C58.553 188.32 58.3997 188.967 58.3997 189.7C58.3997 190.433 58.553 191.087 58.8597 191.66C59.1664 192.22 59.593 192.66 60.1397 192.98C60.6864 193.287 61.293 193.44 61.9597 193.44ZM74.6725 195.12C73.6192 195.12 72.6725 194.887 71.8325 194.42C70.9925 193.953 70.3325 193.313 69.8525 192.5C69.3858 191.673 69.1525 190.74 69.1525 189.7C69.1525 188.66 69.3858 187.733 69.8525 186.92C70.3325 186.093 70.9925 185.453 71.8325 185C72.6725 184.533 73.6192 184.3 74.6725 184.3C75.7258 184.3 76.6658 184.533 77.4925 185C78.3325 185.453 78.9858 186.093 79.4525 186.92C79.9325 187.733 80.1725 188.66 80.1725 189.7C80.1725 190.74 79.9325 191.673 79.4525 192.5C78.9858 193.313 78.3325 193.953 77.4925 194.42C76.6658 194.887 75.7258 195.12 74.6725 195.12ZM74.6725 193.44C75.3525 193.44 75.9592 193.287 76.4925 192.98C77.0392 192.66 77.4658 192.22 77.7725 191.66C78.0792 191.087 78.2325 190.433 78.2325 189.7C78.2325 188.967 78.0792 188.32 77.7725 187.76C77.4658 187.187 77.0392 186.747 76.4925 186.44C75.9592 186.133 75.3525 185.98 74.6725 185.98C73.9925 185.98 73.3792 186.133 72.8325 186.44C72.2992 186.747 71.8725 187.187 71.5525 187.76C71.2458 188.32 71.0925 188.967 71.0925 189.7C71.0925 190.433 71.2458 191.087 71.5525 191.66C71.8725 192.22 72.2992 192.66 72.8325 192.98C73.3792 193.287 73.9925 193.44 74.6725 193.44ZM87.3678 195.12C86.3145 195.12 85.3678 194.887 84.5278 194.42C83.6878 193.953 83.0278 193.313 82.5478 192.5C82.0811 191.673 81.8478 190.74 81.8478 189.7C81.8478 188.66 82.0811 187.733 82.5478 186.92C83.0278 186.093 83.6878 185.453 84.5278 185C85.3678 184.533 86.3145 184.3 87.3678 184.3C88.4211 184.3 89.3611 184.533 90.1878 185C91.0278 185.453 91.6811 186.093 92.1478 186.92C92.6278 187.733 92.8678 188.66 92.8678 189.7C92.8678 190.74 92.6278 191.673 92.1478 192.5C91.6811 193.313 91.0278 193.953 90.1878 194.42C89.3611 194.887 88.4211 195.12 87.3678 195.12ZM87.3678 193.44C88.0478 193.44 88.6545 193.287 89.1878 192.98C89.7345 192.66 90.1611 192.22 90.4678 191.66C90.7745 191.087 90.9278 190.433 90.9278 189.7C90.9278 188.967 90.7745 188.32 90.4678 187.76C90.1611 187.187 89.7345 186.747 89.1878 186.44C88.6545 186.133 88.0478 185.98 87.3678 185.98C86.6878 185.98 86.0745 186.133 85.5278 186.44C84.9945 186.747 84.5678 187.187 84.2478 187.76C83.9411 188.32 83.7878 188.967 83.7878 189.7C83.7878 190.433 83.9411 191.087 84.2478 191.66C84.5678 192.22 84.9945 192.66 85.5278 192.98C86.0745 193.287 86.6878 193.44 87.3678 193.44ZM101.483 194.38C101.203 194.62 100.856 194.807 100.443 194.94C100.03 195.06 99.6031 195.12 99.1631 195.12C98.0965 195.12 97.2698 194.833 96.6831 194.26C96.0965 193.687 95.8031 192.867 95.8031 191.8V185.98H94.0031V184.4H95.8031V182.08H97.7231V184.4H100.763V185.98H97.7231V191.72C97.7231 192.293 97.8631 192.733 98.1431 193.04C98.4365 193.347 98.8498 193.5 99.3831 193.5C99.9698 193.5 100.47 193.333 100.883 193L101.483 194.38ZM108.073 195.12C106.993 195.12 106.026 194.887 105.173 194.42C104.333 193.953 103.673 193.313 103.193 192.5C102.713 191.673 102.473 190.74 102.473 189.7C102.473 188.66 102.713 187.733 103.193 186.92C103.673 186.093 104.333 185.453 105.173 185C106.026 184.533 106.993 184.3 108.073 184.3C109.033 184.3 109.886 184.493 110.633 184.88C111.393 185.267 111.979 185.827 112.393 186.56L110.933 187.5C110.599 186.993 110.186 186.613 109.693 186.36C109.199 186.107 108.653 185.98 108.053 185.98C107.359 185.98 106.733 186.133 106.173 186.44C105.626 186.747 105.193 187.187 104.873 187.76C104.566 188.32 104.413 188.967 104.413 189.7C104.413 190.447 104.566 191.107 104.873 191.68C105.193 192.24 105.626 192.673 106.173 192.98C106.733 193.287 107.359 193.44 108.053 193.44C108.653 193.44 109.199 193.313 109.693 193.06C110.186 192.807 110.599 192.427 110.933 191.92L112.393 192.84C111.979 193.573 111.393 194.14 110.633 194.54C109.886 194.927 109.033 195.12 108.073 195.12ZM118.739 184.3C120.205 184.3 121.325 184.66 122.099 185.38C122.885 186.1 123.279 187.173 123.279 188.6V195H121.459V193.6C121.139 194.093 120.679 194.473 120.079 194.74C119.492 194.993 118.792 195.12 117.979 195.12C116.792 195.12 115.839 194.833 115.119 194.26C114.412 193.687 114.059 192.933 114.059 192C114.059 191.067 114.399 190.32 115.079 189.76C115.759 189.187 116.839 188.9 118.319 188.9H121.359V188.52C121.359 187.693 121.119 187.06 120.639 186.62C120.159 186.18 119.452 185.96 118.519 185.96C117.892 185.96 117.279 186.067 116.679 186.28C116.079 186.48 115.572 186.753 115.159 187.1L114.359 185.66C114.905 185.22 115.559 184.887 116.319 184.66C117.079 184.42 117.885 184.3 118.739 184.3ZM118.299 193.64C119.032 193.64 119.665 193.48 120.199 193.16C120.732 192.827 121.119 192.36 121.359 191.76V190.28H118.399C116.772 190.28 115.959 190.827 115.959 191.92C115.959 192.453 116.165 192.873 116.579 193.18C116.992 193.487 117.565 193.64 118.299 193.64ZM140.092 184.3C141.425 184.3 142.478 184.687 143.252 185.46C144.038 186.233 144.432 187.38 144.432 188.9V195H142.512V189.12C142.512 188.093 142.272 187.32 141.792 186.8C141.325 186.28 140.652 186.02 139.772 186.02C138.798 186.02 138.025 186.327 137.452 186.94C136.878 187.54 136.592 188.407 136.592 189.54V195H134.672V189.12C134.672 188.093 134.432 187.32 133.952 186.8C133.485 186.28 132.812 186.02 131.932 186.02C130.958 186.02 130.185 186.327 129.612 186.94C129.038 187.54 128.752 188.407 128.752 189.54V195H126.832V184.4H128.672V185.98C129.058 185.433 129.565 185.02 130.192 184.74C130.818 184.447 131.532 184.3 132.332 184.3C133.158 184.3 133.892 184.467 134.532 184.8C135.172 185.133 135.665 185.62 136.012 186.26C136.412 185.647 136.965 185.167 137.672 184.82C138.392 184.473 139.198 184.3 140.092 184.3ZM153.585 184.3C154.611 184.3 155.531 184.527 156.345 184.98C157.158 185.433 157.791 186.067 158.245 186.88C158.711 187.693 158.945 188.633 158.945 189.7C158.945 190.767 158.711 191.713 158.245 192.54C157.791 193.353 157.158 193.987 156.345 194.44C155.531 194.893 154.611 195.12 153.585 195.12C152.825 195.12 152.125 194.973 151.485 194.68C150.858 194.387 150.325 193.96 149.885 193.4V198.88H147.965V184.4H149.805V186.08C150.231 185.493 150.771 185.053 151.425 184.76C152.078 184.453 152.798 184.3 153.585 184.3ZM153.425 193.44C154.105 193.44 154.711 193.287 155.245 192.98C155.791 192.66 156.218 192.22 156.525 191.66C156.845 191.087 157.005 190.433 157.005 189.7C157.005 188.967 156.845 188.32 156.525 187.76C156.218 187.187 155.791 186.747 155.245 186.44C154.711 186.133 154.105 185.98 153.425 185.98C152.758 185.98 152.151 186.14 151.605 186.46C151.071 186.767 150.645 187.2 150.325 187.76C150.018 188.32 149.865 188.967 149.865 189.7C149.865 190.433 150.018 191.087 150.325 191.66C150.631 192.22 151.058 192.66 151.605 192.98C152.151 193.287 152.758 193.44 153.425 193.44ZM171.468 186.88C172.842 187.013 173.888 187.44 174.608 188.16C175.328 188.867 175.688 189.773 175.688 190.88C175.688 191.68 175.488 192.407 175.088 193.06C174.688 193.7 174.088 194.213 173.288 194.6C172.502 194.973 171.535 195.16 170.388 195.16C169.388 195.16 168.428 195.013 167.508 194.72C166.588 194.413 165.835 193.993 165.248 193.46L166.168 191.88C166.648 192.333 167.262 192.7 168.008 192.98C168.755 193.247 169.548 193.38 170.388 193.38C171.428 193.38 172.235 193.16 172.808 192.72C173.395 192.28 173.688 191.673 173.688 190.9C173.688 190.127 173.402 189.527 172.828 189.1C172.255 188.673 171.388 188.46 170.228 188.46H169.108V187.06L172.628 182.74H165.888V181H175.128V182.36L171.468 186.88ZM178.874 195.12C178.5 195.12 178.18 194.993 177.914 194.74C177.647 194.473 177.514 194.14 177.514 193.74C177.514 193.353 177.647 193.033 177.914 192.78C178.18 192.513 178.5 192.38 178.874 192.38C179.247 192.38 179.56 192.507 179.814 192.76C180.067 193.013 180.194 193.34 180.194 193.74C180.194 194.14 180.06 194.473 179.794 194.74C179.54 194.993 179.234 195.12 178.874 195.12ZM187.571 195.16C186.464 195.16 185.477 194.88 184.611 194.32C183.757 193.747 183.084 192.92 182.591 191.84C182.097 190.76 181.851 189.48 181.851 188C181.851 186.52 182.097 185.24 182.591 184.16C183.084 183.08 183.757 182.26 184.611 181.7C185.477 181.127 186.464 180.84 187.571 180.84C188.664 180.84 189.637 181.127 190.491 181.7C191.357 182.26 192.037 183.08 192.531 184.16C193.024 185.24 193.271 186.52 193.271 188C193.271 189.48 193.024 190.76 192.531 191.84C192.037 192.92 191.357 193.747 190.491 194.32C189.637 194.88 188.664 195.16 187.571 195.16ZM187.571 193.38C188.691 193.38 189.584 192.92 190.251 192C190.931 191.08 191.271 189.747 191.271 188C191.271 186.253 190.931 184.92 190.251 184C189.584 183.08 188.691 182.62 187.571 182.62C186.437 182.62 185.531 183.08 184.851 184C184.184 184.92 183.851 186.253 183.851 188C183.851 189.747 184.184 191.08 184.851 192C185.531 192.92 186.437 193.38 187.571 193.38Z" fill="black"/>
<g clip-path="url(#clip0_1_16800)">
<path d="M171.6 96.8998H45.8C45.4 96.8998 45 96.4998 45 96.0998C45 95.6998 45.4 95.2998 45.8 95.2998H171.6C172 95.2998 172.4 95.6998 172.4 96.0998C172.4 96.4998 172.1 96.8998 171.6 96.8998Z" fill="#3163E2"/>
<path d="M138.3 42.6002C137.9 42.1002 137.4 41.9002 136.8 41.9002H77.7004L76.0004 37.0002C75.7004 36.2002 75.0004 35.7002 74.2004 35.7002H58.3004C57.2004 35.7002 56.4004 36.6002 56.4004 37.6002C56.4004 38.7002 57.3004 39.5002 58.3004 39.5002H72.8004L86.0004 75.8002L82.5004 89.4002C82.4004 90.0002 82.5004 90.6002 82.8004 91.1002C83.2004 91.6002 83.7004 91.8002 84.3004 91.8002H88.8004C89.6004 94.8002 92.4004 97.0002 95.7004 97.0002C99.0004 97.0002 101.7 94.8002 102.6 91.8002H115C115.8 94.8002 118.6 97.0002 121.9 97.0002C125.8 97.0002 129 93.8002 129 89.9002C129 86.0002 125.8 82.8002 121.9 82.8002C118.6 82.8002 115.9 85.0002 115 88.0002H102.6C101.8 85.0002 99.0004 82.8002 95.7004 82.8002C92.4004 82.8002 89.7004 85.0002 88.8004 88.0002H86.8004L89.5004 77.7002H130.1C131 77.7002 131.8 77.1002 132 76.2002L138.7 44.3002C138.8 43.6002 138.7 43.0002 138.3 42.6002ZM121.9 86.6002C123.7 86.6002 125.2 88.1002 125.2 89.9002C125.2 91.7002 123.7 93.2002 121.9 93.2002C120.1 93.2002 118.6 91.7002 118.6 89.9002C118.6 88.1002 120.1 86.6002 121.9 86.6002ZM95.7004 86.6002C97.5004 86.6002 99.0004 88.1002 99.0004 89.9002C99.0004 91.7002 97.5004 93.2002 95.7004 93.2002C94.0004 93.2002 92.6004 91.9002 92.4004 90.2002C92.4004 90.1002 92.4004 90.0002 92.4004 90.0002V89.8002C92.6004 88.0002 94.0004 86.6002 95.7004 86.6002ZM114 73.8002L109.2 61.7002H117.9L122.7 73.8002H114ZM101.1 73.8002L96.3004 61.7002H105L109.8 73.8002H101.1ZM84.9004 61.7002H92.1004L96.9004 73.8002H89.3004L84.9004 61.7002ZM98.7004 45.7002L103.5 57.8002H94.8004L90.0004 45.7002H98.7004ZM107.6 57.8002L102.8 45.7002H111.5L116.3 57.8002H107.6ZM115.7 45.7002H124.4L129.2 57.8002H120.5L115.7 45.7002ZM132.4 55.4002L128.5 45.7002H134.4L132.4 55.4002ZM85.8004 45.7002L90.6004 57.8002H83.6004L79.2004 45.7002H85.8004ZM128.5 73.8002H126.8L122 61.7002H130.7L130.9 62.3002L128.5 73.8002Z" fill="#3163E2"/>
<path d="M133.8 20.8001C132.8 21.1001 132.2 22.1001 132.4 23.2002C133.6 27.9001 133.5 33.0001 132.1 37.6001C131.8 38.6001 132.4 39.7001 133.4 40.0001C133.6 40.0001 133.8 40.0001 134 40.0001C134.8 40.0001 135.6 39.5001 135.8 38.6001C137.5 33.2001 137.6 27.5001 136.1 22.1001C135.9 21.1001 134.9 20.5001 133.8 20.8001Z" fill="#3163E2"/>
<path d="M113.9 4.70008C119.3 6.10008 124.1 9.30008 127.6 13.6001C128.3 14.4001 129.5 14.6001 130.3 13.9001C131.1 13.2001 131.3 12.0001 130.6 11.2001C126.6 6.20008 121 2.60008 114.8 0.90008C104.6 -1.69992 93.5998 1.30008 86.1998 8.80008C78.5998 16.5001 75.6998 28.2001 78.8998 38.6001C79.1998 39.4001 79.8998 40.0001 80.6998 40.0001C80.8998 40.0001 81.0998 40.0001 81.2998 39.9001C82.2998 39.6001 82.8997 38.5001 82.5997 37.5001C79.7997 28.5001 82.2998 18.3001 88.9998 11.6001C95.3998 5.00008 105 2.40008 113.9 4.70008Z" fill="#3163E2"/>
<path d="M137.8 13.6999C137.2 12.7999 136 12.5999 135.1 13.1999L105.6 32.9999L100.5 20.0999C100.1 19.0999 98.9998 18.5999 97.9998 18.9999C96.9998 19.3999 96.4998 20.4999 96.8998 21.4999L102.9 36.5999C103.1 37.0999 103.6 37.5999 104.1 37.6999C104.3 37.7999 104.5 37.7999 104.7 37.7999C105.1 37.7999 105.5 37.6999 105.8 37.4999L137.3 16.2999C138.2 15.7999 138.4 14.5999 137.8 13.6999Z" fill="#3163E2"/>
</g>
<defs>
<clipPath id="clip0_1_16800">
<rect width="127.4" height="97" fill="white" transform="translate(45)"/>
</clipPath>
</defs>
</svg>
