<svg width="16" height="16" viewBox="0 0 16 16" fill="none" xmlns="http://www.w3.org/2000/svg">
<g clip-path="url(#clip0_3_6887)">
<path d="M14.6666 3.8L11.6 1.2L10.7333 2.2L13.8 4.8L14.6666 3.8ZM5.26665 2.26666L4.39998 1.26666L1.33331 3.8L2.19998 4.8L5.26665 2.26666ZM8.33331 5.33333H7.33331V9.33333L10.4666 11.2667L11 10.4667L8.33331 8.86666V5.33333ZM7.99998 2.66666C4.66665 2.66666 1.99998 5.33333 1.99998 8.66666C1.99998 12 4.66665 14.6667 7.99998 14.6667C11.3333 14.6667 14 12 14 8.66666C14 5.33333 11.3333 2.66666 7.99998 2.66666ZM7.99998 13.3333C5.39998 13.3333 3.33331 11.2667 3.33331 8.66666C3.33331 6.06666 5.39998 4 7.99998 4C10.6 4 12.6666 6.06666 12.6666 8.66666C12.6666 11.2667 10.6 13.3333 7.99998 13.3333Z" fill="#fff"/>
</g>
<defs>
<clipPath id="clip0_3_6887">
<rect width="16" height="16" fill="white"/>
</clipPath>
</defs>
</svg>
