<svg width="14" height="15" viewBox="0 0 14 15" fill="none" xmlns="http://www.w3.org/2000/svg">
<path d="M1.65792 13.3152C1.63158 13.2882 1.60523 13.2613 1.60523 13.2345C1.49999 13.1 1.39475 12.9656 1.23682 12.858C1.21048 12.8311 1.21048 12.8311 1.18414 12.8042C1.15779 12.7772 1.13145 12.7772 1.10524 12.7503C0.947306 12.6427 0.763177 12.562 0.60524 12.4813C0.578897 12.4813 0.578897 12.4813 0.552552 12.4544C0.526209 12.4544 0.499865 12.4544 0.499865 12.4275L0 14.1759V14.2566C0 14.3372 0.0263432 14.391 0.0788996 14.4449C0.105243 14.4718 0.131587 14.4987 0.157799 14.4987H0.210486H0.263173H0.342073L2 13.9877L1.94731 13.8802C1.89488 13.6917 1.78951 13.5035 1.65792 13.3152Z" fill="#fff"/>
<path d="M13.7113 1.56346L12.45 0.286346C12.3287 0.16354 12.1831 0.089906 12.0375 0.0407347C11.892 -0.00843672 11.7223 -0.00843653 11.5767 0.0161498C11.3584 0.0407349 11.1643 0.138955 11.0188 0.310932L10 1.34256L12.6683 4.1425L13.7112 3.08643C13.7355 3.06185 13.7355 3.03726 13.7598 3.03726C14.0994 2.57051 14.0751 1.95648 13.7112 1.56347L13.7113 1.56346Z" fill="#fff"/>
<path d="M3.42587 11.4126L3.03995 11.0139L10.3181 3.49524L8.99485 2.07124L1.49617 9.81776C1.46857 9.84627 1.44097 9.90314 1.44097 9.93165L1.35832 10.1594L1 11.4125H1.05519C1.99249 11.6973 2.70931 12.4663 2.985 13.4061V13.4631L4.44607 13.0074H4.47367C4.47367 13.0074 4.50126 13.0074 4.50126 12.9789C4.52886 12.9789 4.52886 12.9504 4.55646 12.9504L12 5.26083L10.6768 3.83684L3.42587 11.4126Z" fill="#fff"/>
</svg>
